<svg width="208" height="51" viewBox="0 0 208 51" fill="none" xmlns="http://www.w3.org/2000/svg">
<path d="M0.342773 35.9987C0.342773 35.9987 0.371879 37.578 3.68335 39.4531C6.99482 41.3282 22.2942 50.2096 22.2942 50.2096L26.4238 45.2181L2.36717 32.71L0.342773 35.9987Z" fill="#F6921E"/>
<path d="M43.9743 37.8896H32.9727V12.3989H40.831C42.5675 12.3989 43.9743 13.8125 43.9743 15.5576V37.8896Z" fill="#F6921E"/>
<path d="M21.725 49.7806L16.1143 43.4502L37.9751 28.8428L43.8899 37.6495C44.0451 37.8802 43.9772 38.1922 43.7411 38.3319L23.9693 50.1348C23.2384 50.5735 22.2974 50.4241 21.725 49.7806Z" fill="#FFDE40"/>
<path d="M0 13.2539V35.3226C0 36.1156 0.420403 36.8468 1.10275 37.2432L20.1211 48.2792C20.8034 48.6757 21.6442 48.6757 22.3266 48.2792L41.3449 37.2432C42.0272 36.8468 42.4476 36.1156 42.4476 35.3226V13.2539C42.4476 12.461 42.0272 11.7298 41.3449 11.3333L22.3298 0.297348C21.6475 -0.0991159 20.8067 -0.0991159 20.1243 0.297348L1.10598 11.3333C0.420401 11.7298 0 12.461 0 13.2539Z" fill="#FFC10E"/>
<path d="M32.8372 24.5466C34.2343 23.8967 35.2012 22.4733 35.2012 20.8257C35.2012 18.5607 33.3741 16.7246 31.1201 16.7246H22.1558H20.319H18.5598L15.798 24.9691L13.1948 16.7246H6.21289L11.8333 32.6774C11.8333 32.6774 15.507 32.7131 18.6632 32.7131H31.7151C34.0014 32.7131 35.8544 30.8511 35.8544 28.5535C35.8577 26.6459 34.5803 25.0373 32.8372 24.5466ZM28.077 28.3163H24.9919V26.8702H28.077C28.4748 26.8702 28.7982 27.1952 28.7982 27.5949C28.7982 27.9913 28.4748 28.3163 28.077 28.3163ZM28.077 22.8081H24.9919V21.3619H28.077C28.4748 21.3619 28.7982 21.6869 28.7982 22.0866C28.7982 22.4863 28.4748 22.8081 28.077 22.8081Z" fill="#DA202C"/>
<path d="M58.3237 34.0157C58.0611 34.0157 57.8293 33.8511 57.7397 33.6027L51.6802 16.3474C51.6123 16.158 51.6432 15.9469 51.7575 15.7823C51.8749 15.6177 52.0603 15.5215 52.2612 15.5215H60.8205C61.0893 15.5215 61.3303 15.6985 61.4107 15.9562L63.0978 21.3343L64.9333 15.9407C65.0198 15.6892 65.2546 15.5215 65.5173 15.5215H74.1106C74.3114 15.5215 74.4999 15.6208 74.6143 15.7854C74.7286 15.95 74.7595 16.1611 74.6915 16.3506L68.5764 33.6027C68.4899 33.8511 68.255 34.0157 67.9955 34.0157H58.3237Z" fill="#1854A5"/>
<path d="M74.1137 16.1392L67.9986 33.3914H58.3238L52.2643 16.1392H60.8236L63.0762 23.3183L65.5235 16.1392H74.1137ZM74.1168 14.8971H65.5235C64.9951 14.8971 64.5254 15.2356 64.3555 15.7355L63.1288 19.3406L62.0071 15.7635C61.8464 15.248 61.3675 14.894 60.8298 14.894H52.2643C51.8626 14.894 51.4856 15.0897 51.2539 15.4188C51.0221 15.748 50.9634 16.1703 51.0963 16.5491L57.1558 33.8013C57.3288 34.2981 57.7985 34.6303 58.3207 34.6303H67.9986C68.5208 34.6303 68.9874 34.3012 69.1635 33.8044L75.2632 16.5988C75.3188 16.4559 75.3528 16.3007 75.3528 16.1361C75.3528 15.453 74.7997 14.8971 74.1168 14.8971Z" fill="white"/>
<path d="M74.8055 34.0152C74.4656 34.0152 74.1875 33.7358 74.1875 33.3942V16.142C74.1875 15.8005 74.4656 15.521 74.8055 15.521H82.3358C82.6757 15.521 82.9538 15.8005 82.9538 16.142V33.3942C82.9538 33.7358 82.6757 34.0152 82.3358 34.0152H74.8055Z" fill="#1854A5"/>
<path d="M82.3357 16.139V33.3912H74.8053V16.139H82.3357ZM82.3357 14.897H74.8053C74.1224 14.897 73.5693 15.4528 73.5693 16.139V33.3912C73.5693 34.0774 74.1224 34.6333 74.8053 34.6333H82.3357C83.0186 34.6333 83.5717 34.0774 83.5717 33.3912V16.139C83.5717 15.4528 83.0186 14.897 82.3357 14.897Z" fill="white"/>
<path d="M84.1453 34.0152C83.8054 34.0152 83.5273 33.7358 83.5273 33.3942V16.142C83.5273 15.8005 83.8054 15.521 84.1453 15.521H99.3018C99.6417 15.521 99.9198 15.8005 99.9198 16.142V21.6785C99.9198 21.958 99.7344 22.1939 99.4811 22.2716C99.7344 22.3492 99.9198 22.5852 99.9198 22.8647V26.4294C99.9198 26.7709 99.6417 27.0504 99.3018 27.0504H92.5347V27.069H99.3018C99.6417 27.069 99.9198 27.3485 99.9198 27.69V33.3911C99.9198 33.7326 99.6417 34.0121 99.3018 34.0121H84.1453V34.0152Z" fill="#1854A5"/>
<path d="M99.3026 16.139V21.6755H91.8217V22.8648H99.3026V26.4295H91.9175V27.6902H99.3026V33.3912H84.1462V16.139H99.3026ZM99.3026 14.897H84.1462C83.4633 14.897 82.9102 15.4528 82.9102 16.139V33.3912C82.9102 34.0774 83.4633 34.6333 84.1462 34.6333H99.3026C99.9855 34.6333 100.539 34.0774 100.539 33.3912V27.6902C100.539 27.4604 100.477 27.243 100.369 27.0598C100.477 26.8735 100.539 26.6593 100.539 26.4295V22.8648C100.539 22.6505 100.483 22.4456 100.387 22.2717C100.483 22.0947 100.539 21.8929 100.539 21.6786V16.1421C100.539 15.4528 99.9855 14.897 99.3026 14.897Z" fill="white"/>
<path d="M105.701 33.9655C105.361 33.9655 105.083 33.6861 105.083 33.3445V22.2592H100.658C100.318 22.2592 100.04 21.9797 100.04 21.6381V16.142C100.04 15.8005 100.318 15.521 100.658 15.521H118.469C118.809 15.521 119.087 15.8005 119.087 16.142V21.6319C119.087 21.9735 118.809 22.2529 118.469 22.2529H113.92V33.3476C113.92 33.6892 113.642 33.9686 113.302 33.9686H105.701V33.9655Z" fill="#1854A5"/>
<path d="M118.468 16.139V21.6289H113.301V33.3446H105.7V21.6382H100.657V16.1421H118.468V16.139ZM118.468 14.897H100.657C99.974 14.897 99.4209 15.4528 99.4209 16.139V21.6351C99.4209 22.3214 99.974 22.8772 100.657 22.8772H104.464V33.3415C104.464 34.0278 105.017 34.5836 105.7 34.5836H113.301C113.984 34.5836 114.537 34.0278 114.537 33.3415V22.871H118.468C119.151 22.871 119.704 22.3152 119.704 21.6289V16.139C119.704 15.4528 119.151 14.897 118.468 14.897Z" fill="white"/>
<path d="M138.307 33.9001C138.106 33.897 137.917 33.7945 137.806 33.6268C137.692 33.4592 137.67 33.2449 137.741 33.0586L144.307 15.822C144.4 15.5829 144.629 15.4214 144.885 15.4214H155.184C155.444 15.4214 155.679 15.586 155.765 15.8313L161.976 33.1983C162.044 33.3877 162.016 33.5989 161.899 33.7666C161.784 33.9311 161.596 34.0305 161.392 34.0305H153.701C153.444 34.0305 153.213 33.8721 153.123 33.6299L152.276 31.3787H147.209L146.152 33.6703C146.05 33.8908 145.831 34.0305 145.593 34.0305C145.587 34.0305 138.307 33.9001 138.307 33.9001ZM150.219 25.156L149.808 23.8363L149.325 25.156H150.219Z" fill="#DA202C"/>
<path d="M155.18 16.0424L161.391 33.4094H153.7L152.702 30.7576H146.813L145.589 33.4094L138.315 33.279L144.881 16.0424H155.18ZM148.438 25.777H151.061L149.853 21.9111L148.438 25.777ZM155.18 14.8003H144.881C144.368 14.8003 143.911 15.117 143.726 15.5983L137.159 32.835C137.014 33.2138 137.064 33.6392 137.289 33.9746C137.515 34.3099 137.889 34.5149 138.29 34.5211L145.564 34.6515C145.57 34.6515 145.58 34.6515 145.586 34.6515C146.068 34.6515 146.504 34.372 146.708 33.9311L147.597 31.9997H151.843L152.538 33.8472C152.721 34.3317 153.181 34.6515 153.694 34.6515H161.385C161.787 34.6515 162.164 34.4559 162.395 34.1236C162.627 33.7914 162.683 33.3691 162.547 32.9902L156.336 15.6232C156.166 15.1294 155.699 14.8003 155.18 14.8003Z" fill="white"/>
<path d="M174.969 33.9001C174.752 33.9001 174.555 33.7883 174.44 33.6051L170.887 27.783V33.2791C170.887 33.6206 170.609 33.9001 170.269 33.9001H162.769C162.429 33.9001 162.151 33.6206 162.151 33.2791V16.0424C162.151 15.7008 162.429 15.4214 162.769 15.4214H170.303C170.51 15.4214 170.705 15.527 170.819 15.7009L174.706 21.6099V16.0424C174.706 15.7008 174.984 15.4214 175.324 15.4214H182.984C183.324 15.4214 183.602 15.7008 183.602 16.0424V33.2791C183.602 33.6206 183.324 33.9001 182.984 33.9001H174.969Z" fill="#DA202C"/>
<path d="M182.984 16.0424V33.279H174.968L170.268 25.5813V33.279H162.769V16.0424H170.302L175.324 23.6748V16.0424H182.984ZM182.984 14.8003H175.324C174.641 14.8003 174.088 15.3561 174.088 16.0424V19.5418L171.335 15.3561C171.106 15.0083 170.72 14.8003 170.302 14.8003H162.772C162.089 14.8003 161.536 15.3561 161.536 16.0424V33.279C161.536 33.9652 162.089 34.5211 162.772 34.5211H170.272C170.954 34.5211 171.508 33.9652 171.508 33.279V29.9813L173.918 33.928C174.143 34.2975 174.542 34.5211 174.971 34.5211H182.984C183.667 34.5211 184.22 33.9652 184.22 33.279V16.0424C184.22 15.3561 183.667 14.8003 182.984 14.8003Z" fill="white"/>
<path d="M197.367 33.9002C197.135 33.9002 196.922 33.7698 196.817 33.5618L194.382 28.7954V33.2761C194.382 33.6177 194.104 33.8971 193.764 33.8971H184.658C184.318 33.8971 184.04 33.6177 184.04 33.2761V16.0395C184.04 15.6979 184.318 15.4185 184.658 15.4185H193.764C194.104 15.4185 194.382 15.6979 194.382 16.0395V20.4177L197.327 15.7103C197.441 15.5302 197.639 15.4185 197.849 15.4185H206.347C206.575 15.4185 206.786 15.5458 206.894 15.7507C207.002 15.9556 206.986 16.2009 206.857 16.3904L201.743 23.9141L207.292 32.9501C207.41 33.1426 207.416 33.3817 207.305 33.5773C207.197 33.7729 206.99 33.8971 206.764 33.8971H197.367V33.9002Z" fill="#DA202C"/>
<path d="M206.347 16.0424L201.004 23.9015L206.764 33.279H197.367L193.764 26.2303V33.279H184.658V16.0424H193.764V22.5756L197.852 16.0424H206.347ZM206.347 14.8003H197.849C197.423 14.8003 197.03 15.0208 196.802 15.381L194.997 18.2656V16.0424C194.997 15.3561 194.444 14.8003 193.761 14.8003H184.655C183.972 14.8003 183.419 15.3561 183.419 16.0424V33.279C183.419 33.9652 183.972 34.5211 184.655 34.5211H193.761C194.444 34.5211 194.997 33.9652 194.997 33.279V31.3662L196.267 33.8472C196.48 34.2602 196.904 34.5211 197.367 34.5211H206.764C207.212 34.5211 207.626 34.2789 207.842 33.8845C208.062 33.4901 208.049 33.0089 207.815 32.6269L202.475 23.9356L207.345 16.7721C207.493 16.5671 207.58 16.3156 207.58 16.0424C207.583 15.3561 207.03 14.8003 206.347 14.8003Z" fill="white"/>
<path d="M119.824 33.9497C119.37 33.9497 118.999 33.5771 118.999 33.1206V16.1386C118.999 15.797 119.277 15.5176 119.617 15.5176H133.083C135.954 15.5176 138.287 17.862 138.287 20.7466V21.2155C138.287 22.5321 137.66 23.7431 136.649 24.5101C138.117 25.4975 139.041 27.1805 139.041 29.0001C139.041 31.7264 136.835 33.9466 134.118 33.9466H119.824V33.9497ZM129.956 28.0344C130.027 28.0344 130.086 27.9754 130.086 27.904C130.086 27.8326 130.027 27.7736 129.956 27.7736H127.243V28.0344H129.956ZM129.956 22.026C130.027 22.026 130.086 21.967 130.086 21.8955C130.086 21.8241 130.027 21.7651 129.956 21.7651H127.243V22.026H129.956Z" fill="#DA202C"/>
<path d="M133.086 16.139C135.62 16.139 137.672 18.2008 137.672 20.7471V21.2159C137.672 22.7468 136.695 24.0447 135.336 24.5229C137.143 25.1998 138.429 26.948 138.429 29.0005C138.429 31.3884 136.5 33.326 134.124 33.326H119.824C119.709 33.326 119.617 33.2328 119.617 33.118V24.7216V24.4267V16.1359H133.086V16.139ZM126.625 22.6474H129.956C130.37 22.6474 130.704 22.3121 130.704 21.896C130.704 21.4799 130.37 21.1445 129.956 21.1445H126.625V22.6474ZM126.625 28.6559H129.956C130.37 28.6559 130.704 28.3205 130.704 27.9044C130.704 27.4883 130.37 27.153 129.956 27.153H126.625V28.6559ZM133.086 14.897H119.62C118.937 14.897 118.384 15.4528 118.384 16.139V24.4298V24.7248V33.1211C118.384 33.9191 119.03 34.5712 119.827 34.5712H134.127C137.183 34.5712 139.668 32.0746 139.668 29.0036C139.668 27.243 138.892 25.6004 137.619 24.4763C138.429 23.6131 138.911 22.4549 138.911 21.219V20.7502C138.908 17.5239 136.297 14.897 133.086 14.897Z" fill="white"/>
</svg>
